<mxfile host="app.diagrams.net" modified="2020-08-25T12:35:11.169Z" agent="5.0 (Windows NT 10.0; Win64; x64) AppleWebKit/537.36 (KHTML, like Gecko) Chrome/84.0.4147.135 Safari/537.36 Edg/84.0.522.63" etag="euRH-xYqKzig70osYIXm" version="13.6.5" type="github">
  <diagram id="Z5KDKaiRYpYbrPGiCLc9" name="Page-1">
    <mxGraphModel dx="840" dy="789" grid="1" gridSize="10" guides="1" tooltips="1" connect="1" arrows="1" fold="1" page="1" pageScale="1" pageWidth="827" pageHeight="1169" math="0" shadow="0">
      <root>
        <mxCell id="0" />
        <mxCell id="1" parent="0" />
        <mxCell id="qHF6q2cCuitbhCH0dML--3" style="edgeStyle=orthogonalEdgeStyle;rounded=0;orthogonalLoop=1;jettySize=auto;html=1;" edge="1" parent="1" source="qHF6q2cCuitbhCH0dML--1" target="qHF6q2cCuitbhCH0dML--2">
          <mxGeometry relative="1" as="geometry" />
        </mxCell>
        <mxCell id="qHF6q2cCuitbhCH0dML--35" value="All OK" style="edgeLabel;html=1;align=center;verticalAlign=middle;resizable=0;points=[];" vertex="1" connectable="0" parent="qHF6q2cCuitbhCH0dML--3">
          <mxGeometry x="-0.0741" y="-18" relative="1" as="geometry">
            <mxPoint x="17.97" y="35.18" as="offset" />
          </mxGeometry>
        </mxCell>
        <mxCell id="qHF6q2cCuitbhCH0dML--27" style="edgeStyle=orthogonalEdgeStyle;rounded=0;orthogonalLoop=1;jettySize=auto;html=1;entryX=0.5;entryY=0;entryDx=0;entryDy=0;" edge="1" parent="1" source="qHF6q2cCuitbhCH0dML--1" target="qHF6q2cCuitbhCH0dML--26">
          <mxGeometry relative="1" as="geometry" />
        </mxCell>
        <mxCell id="qHF6q2cCuitbhCH0dML--36" value="Faulty startup check" style="edgeLabel;html=1;align=center;verticalAlign=middle;resizable=0;points=[];" vertex="1" connectable="0" parent="qHF6q2cCuitbhCH0dML--27">
          <mxGeometry x="-0.0928" y="24" relative="1" as="geometry">
            <mxPoint x="-24.03" y="35.16" as="offset" />
          </mxGeometry>
        </mxCell>
        <mxCell id="qHF6q2cCuitbhCH0dML--1" value="Initialization" style="ellipse;whiteSpace=wrap;html=1;" vertex="1" parent="1">
          <mxGeometry x="379" y="160" width="70" height="70" as="geometry" />
        </mxCell>
        <mxCell id="qHF6q2cCuitbhCH0dML--6" style="edgeStyle=orthogonalEdgeStyle;rounded=0;orthogonalLoop=1;jettySize=auto;html=1;" edge="1" parent="1" source="qHF6q2cCuitbhCH0dML--2" target="qHF6q2cCuitbhCH0dML--2">
          <mxGeometry relative="1" as="geometry">
            <mxPoint x="460" y="270" as="targetPoint" />
          </mxGeometry>
        </mxCell>
        <mxCell id="qHF6q2cCuitbhCH0dML--7" value="HV off&lt;br&gt;" style="edgeLabel;html=1;align=center;verticalAlign=middle;resizable=0;points=[];" vertex="1" connectable="0" parent="qHF6q2cCuitbhCH0dML--6">
          <mxGeometry x="-0.6467" y="2" relative="1" as="geometry">
            <mxPoint x="10.420000000000002" y="12" as="offset" />
          </mxGeometry>
        </mxCell>
        <mxCell id="qHF6q2cCuitbhCH0dML--8" style="edgeStyle=orthogonalEdgeStyle;rounded=0;orthogonalLoop=1;jettySize=auto;html=1;entryX=1;entryY=0;entryDx=0;entryDy=0;" edge="1" parent="1" source="qHF6q2cCuitbhCH0dML--2" target="qHF6q2cCuitbhCH0dML--13">
          <mxGeometry relative="1" as="geometry">
            <mxPoint x="505" y="440" as="targetPoint" />
            <Array as="points">
              <mxPoint x="530" y="370" />
              <mxPoint x="530" y="370" />
            </Array>
          </mxGeometry>
        </mxCell>
        <mxCell id="qHF6q2cCuitbhCH0dML--12" value="HV on" style="edgeLabel;html=1;align=center;verticalAlign=middle;resizable=0;points=[];" vertex="1" connectable="0" parent="qHF6q2cCuitbhCH0dML--8">
          <mxGeometry x="-0.3172" y="-2" relative="1" as="geometry">
            <mxPoint x="2" y="-14.32" as="offset" />
          </mxGeometry>
        </mxCell>
        <mxCell id="qHF6q2cCuitbhCH0dML--28" style="edgeStyle=orthogonalEdgeStyle;rounded=0;orthogonalLoop=1;jettySize=auto;html=1;entryX=1;entryY=0.5;entryDx=0;entryDy=0;" edge="1" parent="1" source="qHF6q2cCuitbhCH0dML--2" target="qHF6q2cCuitbhCH0dML--26">
          <mxGeometry relative="1" as="geometry" />
        </mxCell>
        <mxCell id="qHF6q2cCuitbhCH0dML--29" value="Faulty check" style="edgeLabel;html=1;align=center;verticalAlign=middle;resizable=0;points=[];" vertex="1" connectable="0" parent="qHF6q2cCuitbhCH0dML--28">
          <mxGeometry x="0.2978" y="-2" relative="1" as="geometry">
            <mxPoint x="21.03" y="2" as="offset" />
          </mxGeometry>
        </mxCell>
        <mxCell id="qHF6q2cCuitbhCH0dML--2" value="Idle&lt;br&gt;" style="ellipse;whiteSpace=wrap;html=1;" vertex="1" parent="1">
          <mxGeometry x="470" y="260" width="70" height="70" as="geometry" />
        </mxCell>
        <mxCell id="qHF6q2cCuitbhCH0dML--34" value="HV off" style="edgeStyle=orthogonalEdgeStyle;rounded=0;orthogonalLoop=1;jettySize=auto;html=1;exitX=0;exitY=0;exitDx=0;exitDy=0;entryX=0;entryY=1;entryDx=0;entryDy=0;" edge="1" parent="1" source="qHF6q2cCuitbhCH0dML--13" target="qHF6q2cCuitbhCH0dML--2">
          <mxGeometry x="-0.5364" relative="1" as="geometry">
            <mxPoint x="440" y="380" as="targetPoint" />
            <mxPoint as="offset" />
          </mxGeometry>
        </mxCell>
        <mxCell id="qHF6q2cCuitbhCH0dML--38" style="edgeStyle=orthogonalEdgeStyle;rounded=0;orthogonalLoop=1;jettySize=auto;html=1;entryX=0.5;entryY=1;entryDx=0;entryDy=0;" edge="1" parent="1" source="qHF6q2cCuitbhCH0dML--13" target="qHF6q2cCuitbhCH0dML--26">
          <mxGeometry relative="1" as="geometry" />
        </mxCell>
        <mxCell id="qHF6q2cCuitbhCH0dML--40" value="Faulty check" style="edgeLabel;html=1;align=center;verticalAlign=middle;resizable=0;points=[];" vertex="1" connectable="0" parent="qHF6q2cCuitbhCH0dML--38">
          <mxGeometry x="-0.422" relative="1" as="geometry">
            <mxPoint x="14.14" as="offset" />
          </mxGeometry>
        </mxCell>
        <mxCell id="qHF6q2cCuitbhCH0dML--13" value="PID controll" style="ellipse;whiteSpace=wrap;html=1;" vertex="1" parent="1">
          <mxGeometry x="470" y="440" width="70" height="70" as="geometry" />
        </mxCell>
        <mxCell id="qHF6q2cCuitbhCH0dML--24" style="edgeStyle=orthogonalEdgeStyle;rounded=0;orthogonalLoop=1;jettySize=auto;html=1;" edge="1" parent="1" source="qHF6q2cCuitbhCH0dML--13" target="qHF6q2cCuitbhCH0dML--13">
          <mxGeometry relative="1" as="geometry" />
        </mxCell>
        <mxCell id="qHF6q2cCuitbhCH0dML--30" value="All OK" style="edgeLabel;html=1;align=center;verticalAlign=middle;resizable=0;points=[];" vertex="1" connectable="0" parent="qHF6q2cCuitbhCH0dML--24">
          <mxGeometry x="0.2675" y="-2" relative="1" as="geometry">
            <mxPoint x="2" y="-8.54" as="offset" />
          </mxGeometry>
        </mxCell>
        <mxCell id="qHF6q2cCuitbhCH0dML--26" value="Error" style="ellipse;whiteSpace=wrap;html=1;" vertex="1" parent="1">
          <mxGeometry x="290" y="260" width="70" height="70" as="geometry" />
        </mxCell>
      </root>
    </mxGraphModel>
  </diagram>
</mxfile>
